<?xml version="1.0" standalone="no"?>
<!DOCTYPE svg PUBLIC "-//W3C//DTD SVG 20010904//EN"
 "http://www.w3.org/TR/2001/REC-SVG-20010904/DTD/svg10.dtd">
<svg version="1.0" xmlns="http://www.w3.org/2000/svg"
 width="1013.000000pt" height="1013.000000pt" viewBox="0 0 1013.000000 1013.000000"
 preserveAspectRatio="xMidYMid meet">
<metadata>
Created by potrace 1.11, written by Peter Selinger 2001-2013
</metadata>
<g transform="translate(0.000000,1013.000000) scale(0.100000,-0.100000)"
fill="#000000" stroke="none">
<path d="M4690 9889 c-411 -35 -916 -151 -1305 -302 -415 -160 -798 -369
-1145 -625 -814 -600 -1404 -1420 -1730 -2401 -28 -85 -51 -168 -51 -185 -2
-43 16 -82 43 -100 21 -14 254 -73 683 -175 812 -192 1645 -387 1950 -457 302
-69 289 -67 327 -51 45 19 52 30 114 163 164 358 441 647 779 813 158 79 305
126 520 170 38 8 73 23 95 41 l34 27 1 1489 c1 819 -2 1502 -7 1519 -4 16 -19
41 -33 55 -23 23 -33 25 -113 25 -48 0 -121 -3 -162 -6z"/>
<path d="M5256 9871 c-16 -17 -32 -47 -36 -69 -4 -22 -6 -704 -5 -1516 2
-1388 3 -1477 19 -1495 25 -27 77 -50 128 -57 86 -12 267 -63 372 -105 433
-172 771 -518 949 -970 116 -293 136 -693 52 -1019 -98 -382 -358 -744 -693
-967 -189 -126 -443 -227 -652 -258 -25 -4 -70 -11 -100 -16 -30 -4 -131 -6
-225 -4 -135 3 -195 9 -290 30 -229 49 -230 49 -266 35 -34 -14 -68 -79 -262
-495 -36 -77 -86 -185 -112 -240 -51 -109 -310 -663 -355 -760 -149 -322 -344
-744 -364 -787 -13 -29 -46 -102 -74 -163 -88 -194 -132 -302 -132 -324 0 -34
17 -59 58 -85 46 -29 235 -100 397 -149 66 -21 134 -41 150 -47 17 -5 77 -21
135 -35 274 -67 522 -105 860 -131 110 -9 554 -9 645 0 480 46 762 102 1151
231 720 238 1345 613 1859 1115 269 262 442 469 657 785 388 569 656 1252 762
1935 8 52 17 113 21 135 26 166 34 334 31 685 -3 387 -6 418 -57 730 -78 478
-225 932 -444 1370 -470 943 -1237 1706 -2188 2176 -457 226 -901 363 -1447
449 -113 18 -263 33 -405 41 l-110 6 -29 -31z"/>
<path d="M425 6036 c-44 -20 -64 -46 -75 -104 -15 -82 -49 -325 -56 -399 -3
-37 -7 -81 -9 -98 -7 -46 -6 -670 0 -750 5 -62 14 -140 31 -270 65 -505 236
-1049 479 -1530 169 -332 384 -658 620 -940 205 -244 577 -590 829 -773 268
-193 584 -381 667 -397 26 -5 42 -1 68 17 39 27 42 33 122 203 73 156 366 785
454 975 62 133 91 196 186 399 27 57 49 105 49 106 0 2 27 61 61 132 59 124
94 199 137 293 11 25 39 86 62 135 45 95 90 194 133 285 86 187 99 234 77 276
-8 14 -62 60 -121 104 -287 213 -483 470 -602 790 -33 89 -68 219 -81 300 -3
19 -9 49 -12 65 -4 17 -8 120 -10 230 -2 110 -3 207 -3 216 -1 9 -13 28 -27
42 -27 27 -25 27 -624 169 -140 33 -289 68 -330 78 -76 18 -958 225 -1105 260
-258 61 -874 200 -884 200 -3 -1 -19 -7 -36 -14z"/>
</g>
</svg>
